<?xml version="1.0" standalone="no"?>
<!DOCTYPE svg PUBLIC "-//W3C//DTD SVG 20010904//EN"
 "http://www.w3.org/TR/2001/REC-SVG-20010904/DTD/svg10.dtd">
<svg version="1.0" xmlns="http://www.w3.org/2000/svg"
 width="2328.000000pt" height="2334.000000pt" viewBox="0 0 2328.000000 2334.000000"
 preserveAspectRatio="xMidYMid meet">

<g transform="translate(0.000000,2334.000000) scale(0.100000,-0.100000)"
fill="#000000" stroke="none">
<path d="M11150 23163 c-2718 -113 -5218 -1118 -7235 -2906 -211 -188 -735
-700 -735 -719 0 -3 108 -108 240 -233 l241 -227 262 259 c438 433 790 734
1253 1074 722 529 1509 965 2359 1307 1777 715 3759 946 5665 661 1905 -285
3676 -1059 5180 -2264 552 -443 1098 -977 1556 -1525 1402 -1677 2269 -3763
2468 -5945 36 -388 41 -501 41 -1005 0 -595 -17 -880 -81 -1385 -284 -2224
-1244 -4298 -2753 -5943 -101 -110 -103 -114 -85 -131 124 -115 380 -356 421
-394 l51 -50 60 64 c933 1001 1708 2220 2227 3504 457 1132 745 2398 814 3580
6 99 13 210 16 247 9 120 6 878 -5 1078 -33 624 -110 1223 -235 1814 -569
2701 -2067 5074 -4274 6774 -770 593 -1653 1104 -2573 1488 -1415 591 -2942
891 -4488 882 -179 -1 -354 -3 -390 -5z"/>
<path d="M11256 19239 c-474 -42 -1010 -208 -1419 -440 -877 -499 -1500 -1320
-1735 -2289 -122 -502 -131 -1098 -23 -1575 21 -91 23 -88 41 70 67 568 445
1187 1016 1664 994 830 2411 1251 3284 976 327 -104 554 -316 646 -603 25 -81
27 -92 17 -159 -46 -318 -425 -483 -903 -393 -143 27 -351 112 -465 190 -104
71 -395 96 -601 50 -103 -23 -183 -52 -299 -110 -424 -210 -797 -689 -949
-1216 -53 -185 -69 -312 -63 -489 8 -232 47 -343 163 -460 111 -114 276 -191
513 -240 252 -52 670 -48 1016 11 522 88 1061 278 1505 532 804 459 1329 1068
1535 1778 64 219 95 449 95 693 0 201 -14 322 -45 389 -51 110 -263 378 -449
566 -600 605 -1350 965 -2196 1052 -145 14 -534 17 -684 3z"/>
<path d="M15160 15822 c0 -16 -156 -268 -240 -387 -513 -732 -1208 -1318
-2065 -1739 -699 -344 -1421 -545 -2180 -607 -190 -15 -712 -6 -865 15 -301
43 -523 100 -745 193 -70 30 -213 107 -270 146 -28 20 -29 20 -15 2 174 -232
476 -517 755 -712 600 -420 1307 -642 2040 -643 304 0 512 23 798 86 987 219
1833 851 2342 1749 231 408 376 859 435 1360 13 105 26 545 16 545 -3 0 -6 -4
-6 -8z"/>
<path d="M5772 11544 c-523 -88 -851 -524 -671 -892 80 -163 253 -251 437
-222 217 35 335 192 268 356 l-17 42 -53 -54 c-87 -87 -149 -83 -203 12 -33
57 -32 169 1 241 77 164 313 268 551 242 283 -30 506 -288 505 -583 -1 -115
-38 -236 -97 -312 l-27 -37 -216 3 c-118 2 -468 3 -777 2 l-563 -2 0 -115 0
-115 160 0 160 0 0 -515 c0 -283 -1 -515 -3 -515 -10 0 -853 333 -860 339 -5
5 15 23 42 41 76 48 194 179 234 259 66 132 72 268 16 385 -52 111 -206 236
-356 290 -188 66 -459 58 -646 -20 -193 -81 -333 -236 -353 -391 -21 -168 93
-361 279 -474 31 -19 57 -36 57 -39 0 -3 -42 -26 -93 -52 -172 -88 -301 -185
-410 -307 -133 -148 -144 -300 -29 -403 71 -64 160 -98 259 -98 76 0 84 5 66
41 -8 16 -17 53 -20 83 -5 44 -1 63 19 107 56 121 257 276 478 369 l101 43 87
-41 c102 -47 320 -129 447 -167 50 -16 94 -31 98 -35 5 -5 -17 -15 -50 -24
-168 -47 -389 -143 -509 -222 -33 -21 -91 -70 -130 -109 -58 -57 -75 -81 -88
-124 -71 -239 210 -451 517 -390 l55 11 -41 32 c-52 40 -76 81 -84 143 -7 65
12 106 82 174 118 114 312 211 675 334 l161 54 -3 -227 -3 -227 -31 -66 c-35
-73 -78 -120 -177 -194 -106 -79 -131 -155 -72 -219 41 -44 76 -47 538 -44
477 3 479 3 512 68 34 66 4 129 -99 204 -94 70 -150 134 -178 205 l-23 56 -3
832 -2 832 392 -2 393 -2 3 -765 c2 -478 -1 -794 -7 -843 -18 -134 -77 -226
-205 -317 -110 -78 -139 -159 -80 -221 15 -16 44 -34 63 -39 40 -11 831 -14
895 -3 25 4 50 18 72 40 67 66 36 147 -88 236 -111 79 -166 158 -187 272 -9
43 -11 291 -9 850 l3 790 218 3 217 2 0 115 0 115 -215 0 c-118 0 -215 4 -215
9 0 4 15 41 34 82 60 130 79 247 64 386 -17 158 -75 276 -198 406 -161 170
-377 282 -620 322 -116 18 -334 18 -448 -1z m-1701 -1354 c48 -14 127 -84 150
-135 59 -129 -21 -307 -175 -390 l-55 -30 -46 23 c-57 28 -139 103 -171 158
-102 174 13 382 211 384 28 0 66 -5 86 -10z"/>
<path d="M18527 11545 c-165 -28 -321 -93 -448 -186 -175 -129 -267 -284 -277
-466 -3 -60 0 -110 8 -140 62 -227 253 -357 474 -323 127 20 236 90 272 176
23 55 14 174 -16 207 -4 5 -30 -14 -58 -42 -58 -58 -102 -72 -150 -47 -71 37
-99 194 -53 299 42 97 177 196 316 232 90 24 254 21 336 -4 122 -38 242 -133
321 -255 115 -177 113 -440 -4 -613 l-29 -43 -4047 0 c-2226 0 -4689 0 -5474
0 l-1428 0 0 -115 0 -115 260 0 c143 0 260 -3 260 -7 0 -5 -23 -21 -51 -38
-61 -36 -145 -115 -185 -175 -112 -163 -95 -380 40 -536 68 -79 190 -144 272
-144 17 0 33 -2 35 -5 3 -2 -36 -46 -86 -97 -95 -98 -149 -184 -179 -287 -20
-69 -21 -208 -1 -286 74 -289 370 -530 757 -617 139 -31 449 -33 603 -4 287
53 539 181 731 371 202 200 283 400 271 675 -12 305 -150 570 -346 670 l-61
30 0 225 0 224 1095 1 c872 0 1097 -2 1100 -12 3 -7 4 -213 3 -457 l-3 -444
-45 64 c-133 189 -313 387 -445 486 -199 151 -343 142 -570 -37 -82 -65 -151
-98 -235 -112 -63 -11 -79 -10 -138 6 -107 29 -107 29 -110 -31 -9 -164 84
-345 212 -410 77 -39 170 -38 252 5 34 17 92 56 130 87 198 162 286 215 354
215 95 -1 213 -89 458 -342 l94 -97 -39 -9 c-21 -6 -88 -21 -148 -36 -355 -83
-668 -231 -832 -392 -100 -97 -127 -149 -127 -245 0 -53 5 -74 27 -111 83
-142 284 -196 439 -117 43 22 53 35 35 42 -46 17 -61 151 -26 223 43 90 205
215 394 305 91 43 293 119 317 119 7 0 9 -61 6 -177 -4 -154 -8 -186 -27 -236
-31 -80 -73 -131 -166 -201 -93 -72 -125 -114 -125 -167 0 -48 38 -95 88 -109
50 -13 864 -13 914 0 50 14 88 61 88 109 0 53 -32 95 -125 167 -92 70 -134
120 -167 201 l-23 58 0 825 0 825 448 2 c246 2 447 0 447 -3 0 -4 -17 -29 -37
-57 -390 -529 -401 -1077 -28 -1380 83 -67 221 -132 324 -153 108 -21 275 -15
376 15 107 31 280 122 390 204 l100 74 3 -161 c2 -137 0 -170 -17 -226 -28
-91 -73 -149 -177 -228 -72 -54 -92 -76 -108 -113 -22 -54 -17 -84 18 -122 42
-45 75 -48 539 -45 475 3 470 3 508 65 41 66 5 136 -110 217 -87 62 -120 99
-159 184 l-27 57 -3 837 -2 837 1125 1 1125 0 0 -261 0 -261 -39 35 c-88 79
-237 148 -401 183 -121 26 -395 26 -500 1 -105 -26 -264 -105 -353 -176 -281
-224 -418 -561 -377 -930 47 -425 275 -737 571 -783 72 -11 78 -10 132 15 67
30 130 91 185 178 l41 64 -49 6 c-170 22 -336 215 -401 468 -29 109 -36 306
-15 395 49 206 223 384 451 462 106 36 295 45 395 19 90 -23 204 -85 289 -156
l71 -60 0 -413 c0 -384 -1 -419 -20 -478 -27 -89 -74 -149 -174 -224 -120 -90
-149 -150 -106 -219 37 -60 41 -60 530 -60 489 0 493 0 530 60 25 41 25 58 0
111 -15 30 -44 59 -105 104 -94 70 -124 104 -163 188 l-27 57 -3 837 -2 837
390 0 390 0 -2 -837 -3 -837 -31 -66 c-35 -73 -78 -120 -177 -194 -106 -79
-131 -155 -72 -219 41 -44 76 -47 538 -44 391 3 435 5 464 21 35 18 63 62 63
97 0 42 -41 101 -101 145 -129 95 -168 143 -199 243 -19 62 -20 94 -20 878 l0
814 220 0 220 0 0 115 0 115 -213 0 c-118 0 -216 3 -220 6 -3 3 10 36 29 72
56 109 78 215 71 352 -8 196 -70 328 -227 480 -169 165 -376 264 -625 300 -96
13 -313 11 -408 -5z m-8397 -1648 l0 -214 -52 -12 c-78 -17 -188 -82 -243
-143 -27 -29 -62 -82 -79 -118 -28 -58 -31 -75 -31 -160 0 -78 4 -104 23 -144
50 -108 137 -178 243 -192 120 -16 269 84 269 182 0 20 -4 25 -16 20 -44 -17
-90 -16 -124 2 -83 46 -107 190 -44 269 46 58 106 85 179 81 74 -5 122 -28
175 -82 92 -94 129 -233 110 -419 -25 -249 -112 -443 -277 -618 -139 -147
-286 -221 -484 -244 -72 -8 -216 10 -280 35 -214 85 -359 287 -359 500 1 171
95 361 227 460 86 64 130 113 144 160 21 67 18 224 -4 282 -49 127 -154 123
-204 -8 -42 -110 -109 -140 -208 -93 -83 39 -143 135 -159 254 -19 137 75 298
224 383 l55 32 458 0 457 0 0 -213z m5140 -292 l0 -504 -32 -37 c-151 -172
-452 -253 -632 -171 -107 49 -186 131 -245 255 -42 86 -55 155 -55 282 0 199
72 395 220 603 l55 77 344 0 345 0 0 -505z"/>
<path d="M4320 6811 l0 -61 53 0 c62 0 64 -2 202 -152 l97 -108 -821 0 -821 0
0 -60 0 -60 265 0 265 0 0 -70 c0 -78 -10 -90 -74 -90 l-36 0 0 -152 c0 -174
11 -207 75 -234 41 -17 256 -20 286 -4 18 10 19 7 19 -38 l0 -49 -39 -7 c-59
-9 -83 -34 -88 -93 -9 -85 26 -115 108 -93 32 9 41 16 46 40 8 41 27 54 69 47
55 -9 64 -22 64 -88 0 -91 -1 -91 -204 -87 -191 3 -194 4 -298 86 l-57 45 -38
-34 c-21 -18 -38 -36 -38 -40 0 -10 151 -120 190 -139 22 -10 86 -15 250 -18
231 -4 283 2 327 37 22 18 23 25 23 146 l0 127 -34 28 c-22 19 -50 31 -82 35
l-49 7 0 319 0 319 165 0 165 0 0 -86 c0 -81 -10 -120 -34 -136 -6 -4 -41 -8
-78 -8 l-68 0 0 -60 c0 -60 0 -60 29 -60 46 0 61 -30 61 -126 0 -67 4 -86 21
-108 37 -47 68 -56 189 -56 l110 0 0 60 0 60 -69 0 c-84 0 -94 10 -101 94 -5
54 -8 62 -37 82 l-32 22 44 12 c30 8 57 26 80 51 l35 39 0 110 0 110 115 0
115 0 0 -320 0 -320 75 0 75 0 0 320 0 320 65 0 65 0 0 60 0 60 -59 0 -59 0
-146 170 c-81 93 -159 178 -173 187 -20 13 -53 19 -120 21 l-93 4 0 -61z
m-490 -645 c0 -227 -1 -230 -66 -242 -46 -8 -120 0 -139 16 -11 9 -15 33 -15
86 l0 74 33 0 c59 0 71 25 75 156 l4 114 54 0 54 0 0 -204z"/>
<path d="M11860 6811 l0 -61 53 0 c62 0 64 -2 202 -152 l97 -108 -1366 0
-1366 0 0 -60 0 -60 115 0 115 0 0 -79 c0 -80 -11 -129 -33 -143 -7 -4 -42 -8
-79 -8 l-68 0 0 -60 c0 -57 1 -60 25 -60 48 0 65 -31 65 -121 0 -141 35 -169
210 -169 l110 0 0 60 0 60 -68 0 c-88 0 -102 13 -102 94 0 47 -4 61 -24 81
l-24 24 29 6 c15 4 40 15 54 27 45 35 55 68 55 183 l0 105 85 0 85 0 0 -115 0
-115 -80 0 -80 0 0 -60 0 -60 80 0 80 0 0 -145 c0 -134 -1 -145 -19 -145 -43
0 -83 -23 -97 -56 -41 -98 3 -159 97 -134 32 9 41 16 46 40 8 41 27 54 69 47
55 -9 64 -22 64 -88 0 -91 -1 -91 -204 -87 -191 3 -194 4 -298 86 l-57 45 -38
-34 c-21 -18 -38 -36 -38 -40 0 -10 151 -120 190 -139 22 -10 86 -15 250 -18
231 -4 283 2 327 37 22 18 23 25 23 146 l0 127 -34 28 c-22 19 -50 31 -82 35
l-49 7 0 319 0 319 90 0 90 0 0 -155 c0 -171 7 -197 57 -231 23 -15 46 -19
123 -19 52 0 103 4 113 9 16 8 17 -1 17 -118 l0 -126 75 0 75 0 0 320 0 320
160 0 160 0 0 -98 c0 -125 -6 -132 -108 -132 l-72 0 0 -60 c0 -59 0 -60 28
-60 50 0 59 -16 65 -116 7 -149 39 -174 216 -174 l111 0 0 60 0 60 -68 0 c-86
0 -102 14 -102 89 0 43 -4 56 -26 76 -15 14 -32 25 -38 26 -6 0 12 9 40 20 27
10 63 33 80 50 28 29 29 34 32 145 l4 114 164 0 164 0 0 -79 c0 -80 -11 -129
-33 -143 -7 -4 -42 -8 -79 -8 l-68 0 0 -60 c0 -57 1 -60 25 -60 48 0 65 -31
65 -121 0 -141 35 -169 210 -169 l110 0 0 60 0 60 -68 0 c-87 0 -102 13 -102
93 0 49 -3 58 -28 79 l-28 23 50 20 c80 32 96 64 96 196 l0 109 65 0 65 0 0
-150 c0 -185 8 -212 75 -241 37 -16 62 -20 123 -17 42 2 85 8 95 12 16 8 17
-1 17 -118 l0 -126 75 0 75 0 0 320 0 320 65 0 65 0 0 60 0 60 -54 0 -54 0
-146 170 c-81 93 -159 178 -173 187 -20 13 -53 19 -120 21 l-93 4 0 -61z
m-1190 -575 c0 -103 -3 -136 -14 -145 -9 -7 -38 -11 -73 -9 l-58 3 -3 143 -3
142 76 0 75 0 0 -134z m1550 0 c0 -103 -3 -136 -14 -145 -9 -7 -38 -11 -73 -9
l-58 3 -3 143 -3 142 76 0 75 0 0 -134z"/>
<path d="M8270 6790 l0 -50 80 0 80 0 0 50 0 50 -80 0 -80 0 0 -50z"/>
<path d="M13853 6821 c-61 -28 -73 -59 -73 -186 0 -92 3 -108 20 -125 l20 -20
-450 0 -450 0 0 -60 0 -60 55 0 55 0 0 -320 0 -320 75 0 75 0 0 320 0 320 110
0 110 0 0 -320 0 -320 80 0 80 0 0 320 0 320 110 0 110 0 0 -320 0 -320 80 0
80 0 0 320 0 320 340 0 340 0 0 -53 0 -52 -45 3 c-63 5 -94 -4 -107 -33 l-11
-24 -27 29 c-27 29 -31 30 -117 30 -70 0 -95 -4 -120 -20 -62 -37 -65 -48 -61
-254 l3 -185 29 -30 c36 -38 80 -51 169 -51 l67 0 0 60 0 60 -39 0 c-67 0 -72
13 -69 162 3 143 9 157 61 144 26 -6 27 -9 27 -71 l0 -65 80 0 80 0 0 65 c0
73 12 87 56 67 l24 -12 0 -205 0 -205 75 0 75 0 0 320 0 320 255 0 255 0 0
-52 0 -53 -120 0 -120 0 -32 -33 -33 -32 -3 -188 c-3 -202 1 -218 51 -256 23
-17 46 -21 133 -24 153 -6 207 3 244 39 26 27 30 38 30 85 l0 54 -72 0 c-71 0
-74 -1 -90 -30 -15 -26 -23 -30 -62 -30 -71 0 -76 11 -76 154 0 106 2 125 18
139 29 26 88 22 116 -8 21 -22 31 -25 95 -25 l71 0 0 130 0 130 95 0 95 0 0
-320 0 -320 75 0 75 0 0 320 0 320 65 0 65 0 0 60 0 60 -77 0 c-60 0 -74 3
-65 12 8 8 12 52 12 134 0 117 -1 124 -26 153 -35 42 -77 51 -234 51 -158 0
-202 -10 -247 -55 l-33 -33 0 -121 0 -121 80 0 80 0 0 95 c0 113 2 115 114
115 102 0 116 -13 116 -109 0 -38 -4 -81 -10 -95 l-10 -26 -819 0 c-948 0
-841 -16 -841 124 0 104 7 110 114 104 90 -4 107 -15 193 -123 l68 -85 78 0
79 0 -48 68 c-100 141 -124 170 -161 199 -66 50 -89 56 -233 60 -118 3 -140 1
-177 -16z"/>
<path d="M17393 6829 c-43 -13 -80 -60 -89 -114 -11 -77 -1 -181 20 -204 l19
-21 -576 0 -577 0 0 -60 0 -60 180 0 180 0 0 -43 0 -42 -74 3 c-127 7 -186
-40 -186 -146 0 -45 4 -58 28 -82 l29 -28 -23 -11 c-33 -14 -36 -39 -32 -210
3 -133 5 -153 24 -178 36 -49 55 -53 247 -53 l177 0 0 60 0 60 -126 0 c-69 0
-134 5 -145 10 -17 10 -19 22 -19 130 0 108 2 120 19 130 29 15 87 12 105 -6
31 -31 13 -74 -31 -74 -21 0 -23 -4 -23 -60 l0 -60 55 0 c67 0 114 18 144 56
19 25 21 37 19 123 l-3 95 -34 23 c-30 20 -46 23 -131 23 -105 0 -124 8 -118
52 3 23 4 23 131 19 l127 -4 0 107 0 106 110 0 110 0 0 -320 0 -320 75 0 75 0
0 320 0 320 110 0 110 0 0 -320 0 -320 80 0 80 0 0 320 0 320 160 0 160 0 0
-98 c0 -125 -6 -132 -108 -132 l-72 0 0 -60 c0 -59 0 -60 28 -60 51 0 60 -16
64 -115 7 -149 38 -175 217 -175 l111 0 0 60 0 60 -69 0 c-88 0 -101 11 -101
86 0 48 -4 60 -28 84 l-28 28 36 11 c41 12 87 53 101 89 5 13 9 68 9 123 l0
99 65 0 65 0 0 -157 c0 -180 10 -212 77 -239 38 -16 181 -16 216 0 16 8 17 -1
17 -118 l0 -126 75 0 75 0 0 320 0 320 250 0 250 0 0 -52 0 -53 -105 3 c-92 3
-110 1 -139 -17 -51 -32 -56 -53 -56 -252 0 -251 6 -259 193 -267 149 -6 193
2 234 43 29 29 33 40 33 84 l0 51 -80 0 c-73 0 -80 -2 -80 -20 0 -24 -28 -40
-72 -40 -63 0 -73 16 -76 130 -4 111 0 141 24 164 31 31 124 13 124 -25 0 -5
36 -9 80 -9 l80 0 0 130 0 130 320 0 320 0 0 -52 0 -53 -57 4 c-55 3 -59 2
-85 -30 -19 -23 -28 -28 -28 -17 0 34 -40 48 -133 48 -94 0 -134 -13 -161 -52
-23 -33 -23 -375 0 -419 22 -44 83 -69 172 -69 l72 0 0 60 0 60 -33 0 c-65 0
-72 14 -75 153 -4 134 4 157 52 157 35 0 46 -20 46 -82 l0 -58 80 0 80 0 0 70
c0 66 1 70 23 70 44 0 47 -12 47 -227 l0 -203 80 0 80 0 0 320 0 320 65 0 65
0 0 60 0 60 -1314 0 -1315 0 -15 22 c-11 16 -16 46 -16 99 0 115 -10 111 267
107 180 -2 234 -6 255 -18 15 -8 74 -55 132 -103 l104 -87 78 0 79 1 -120 115
c-217 209 -233 214 -585 213 -135 0 -259 -5 -277 -10z m987 -587 c0 -159 -3
-164 -85 -160 l-60 3 -3 143 -3 142 76 0 75 0 0 -128z"/>
<path d="M5872 6694 c4 -91 6 -98 32 -121 28 -24 31 -24 192 -21 l164 3 27 28
c26 25 28 35 31 117 l4 90 -56 0 -56 0 0 -44 c0 -76 -1 -76 -105 -76 -51 0
-100 3 -109 6 -12 5 -16 20 -16 60 l0 54 -56 0 -56 0 4 -96z"/>
<path d="M8092 6699 c4 -84 6 -94 31 -115 35 -30 89 -37 259 -32 203 5 227 22
228 156 l0 82 -55 0 -54 0 -3 -57 -3 -58 -134 -3 c-90 -2 -138 1 -147 9 -8 7
-14 31 -14 60 l0 49 -56 0 -56 0 4 -91z"/>
<path d="M16780 6723 c0 -38 5 -85 11 -106 17 -63 35 -69 219 -65 l162 3 29
33 c27 30 29 38 29 117 l0 85 -55 0 -54 0 -3 -57 -3 -58 -99 -3 c-64 -2 -103
1 -112 9 -8 7 -14 31 -14 60 l0 49 -55 0 -55 0 0 -67z"/>
<path d="M5260 6430 l0 -60 200 0 200 0 0 -52 0 -53 -105 3 c-92 3 -110 1
-139 -17 -51 -32 -56 -53 -56 -252 0 -226 8 -245 114 -264 l35 -7 -86 -82 -86
-82 31 -23 32 -22 93 85 c50 47 95 86 99 86 4 0 47 -38 96 -85 49 -47 94 -85
98 -85 5 1 20 10 34 22 l25 20 -89 83 -90 83 44 7 c31 5 55 18 77 40 32 32 33
34 33 124 l0 92 -77 -3 -78 -3 -3 -55 c-3 -64 -18 -80 -72 -80 -69 0 -75 12
-75 155 0 114 2 128 19 141 33 23 91 18 114 -11 18 -23 27 -25 96 -25 l76 0 0
130 0 130 100 0 100 0 0 -320 0 -320 75 0 75 0 0 320 0 320 120 0 120 0 0
-115 0 -115 -35 0 -35 0 0 -100 c0 -92 2 -103 23 -124 29 -29 85 -40 136 -26
49 13 71 42 71 92 l0 38 75 0 75 0 0 -145 0 -145 75 0 75 0 0 320 0 320 115 0
115 0 0 -320 0 -320 75 0 75 0 0 320 0 320 65 0 65 0 0 60 0 60 -1060 0 -1060
0 0 -60z m1460 -175 l0 -115 -75 0 -75 0 0 115 0 115 75 0 75 0 0 -115z"/>
<path d="M7823 6479 c-17 -5 -43 -23 -57 -40 -23 -26 -26 -40 -26 -100 l0 -69
75 0 75 0 0 39 c0 48 17 63 67 59 l38 -3 3 -75 c3 -67 1 -77 -19 -92 -11 -10
-32 -18 -45 -18 -22 0 -24 -4 -24 -55 0 -51 2 -55 24 -55 13 0 33 -8 45 -17
20 -16 22 -26 19 -108 l-3 -90 -38 -3 c-53 -4 -67 11 -67 69 l0 49 -75 0 -75
0 0 -79 c0 -71 3 -83 26 -110 33 -40 77 -51 202 -51 171 0 192 25 192 222 0
117 -1 126 -23 146 -13 12 -29 22 -37 22 -7 0 2 10 21 23 l34 23 3 114 c2 101
0 119 -18 148 -30 48 -72 62 -187 61 -54 0 -112 -5 -130 -10z"/>
<path d="M8220 6430 c0 -57 1 -60 25 -60 25 0 25 0 25 -95 l0 -95 -45 0 -45 0
0 -55 0 -55 45 0 45 0 0 -170 0 -170 80 0 80 0 0 320 0 320 245 0 245 0 0 -52
0 -53 -107 3 c-100 3 -111 2 -143 -20 -50 -34 -61 -62 -58 -145 3 -53 8 -77
22 -92 27 -30 107 -51 193 -51 80 0 113 -18 113 -63 0 -36 -19 -47 -85 -47
-63 0 -85 11 -85 42 0 16 -10 18 -81 18 l-82 0 6 -52 c8 -61 42 -103 96 -118
47 -13 246 -13 293 0 20 6 48 24 62 41 24 28 26 38 26 134 0 103 0 103 -31
129 -17 14 -36 27 -42 27 -7 1 -64 4 -127 8 -114 6 -115 6 -118 32 -5 40 18
52 85 45 32 -4 93 -9 136 -12 l77 -6 0 116 0 116 60 0 60 0 0 60 0 60 -485 0
-485 0 0 -60z"/>
<path d="M12584 6476 c-39 -17 -54 -57 -54 -142 l0 -63 78 -3 77 -3 -1 -47 c0
-66 -14 -78 -90 -78 l-64 0 0 -60 c0 -60 0 -60 29 -60 49 0 61 -22 61 -107 0
-139 45 -182 193 -183 l77 0 0 60 0 60 -43 0 c-24 0 -48 5 -55 12 -7 7 -12 36
-12 64 0 69 -13 100 -50 122 l-30 19 39 12 c22 6 53 27 70 46 l31 36 0 134 c0
127 -1 135 -24 162 -23 26 -30 28 -113 31 -59 1 -98 -2 -119 -12z"/>
<path d="M3190 6253 c-39 -12 -63 -30 -76 -55 -18 -35 -20 -248 -2 -266 7 -7
44 -12 95 -12 105 0 123 14 123 93 0 61 -16 97 -50 114 -22 11 -14 13 63 13
l87 0 0 60 0 60 -112 -1 c-62 0 -120 -3 -128 -6z"/>
<path d="M11800 6080 l0 -60 50 0 50 0 0 60 0 60 -50 0 -50 0 0 -60z"/>
<path d="M17950 6080 l0 -60 55 0 55 0 0 60 0 60 -55 0 -55 0 0 -60z"/>
</g>
</svg>
